<svg width="15" height="15" viewBox="0 0 15 15" fill="none" xmlns="http://www.w3.org/2000/svg">
<path d="M14.1429 12.0268C14.1429 11.9565 14.1429 11.8862 14.1127 11.8158C14.0424 11.6049 13.5502 11.3839 13.3493 11.2835C12.7768 10.9621 12.1942 10.6507 11.6317 10.3192C11.3705 10.1585 11.0491 9.85714 10.7377 9.85714C10.125 9.85714 9.23103 11.6752 8.68862 11.6752C8.41741 11.6752 8.06585 11.4241 7.82478 11.2835C5.99665 10.269 4.73103 9.00335 3.71652 7.17522C3.57589 6.93415 3.32478 6.58259 3.32478 6.31138C3.32478 5.76897 5.14286 4.875 5.14286 4.26228C5.14286 3.95089 4.84152 3.62946 4.6808 3.3683C4.34933 2.8058 4.03795 2.22321 3.71652 1.65067C3.61607 1.44978 3.39509 0.957589 3.18415 0.887276C3.11384 0.857142 3.04353 0.857142 2.97321 0.857142C2.61161 0.857142 1.90848 1.01786 1.57701 1.16853C1.08482 1.37946 0.763393 1.94196 0.512277 2.39397C0.190848 2.98661 0 3.58929 0 4.26228C0 5.19643 0.381696 6.04018 0.69308 6.89397C0.914063 7.5067 1.18527 8.09933 1.52679 8.65179C2.58147 10.3594 4.64062 12.4185 6.34821 13.4732C6.90067 13.8147 7.4933 14.0859 8.10603 14.3069C8.95982 14.6183 9.80357 15 10.7377 15C11.4107 15 12.0134 14.8092 12.606 14.4877C13.058 14.2366 13.6205 13.9152 13.8315 13.423C13.9821 13.0915 14.1429 12.3884 14.1429 12.0268Z" fill="#7E5AFF"/>
</svg>
