<svg width="16" height="17" viewBox="0 0 16 17" fill="none" xmlns="http://www.w3.org/2000/svg">
<path d="M9 5.03571C9 4.85491 8.85938 4.71429 8.67857 4.71429H8.03571C7.85491 4.71429 7.71429 4.85491 7.71429 5.03571V8.57143H5.46429C5.28348 8.57143 5.14286 8.71205 5.14286 8.89286V9.53571C5.14286 9.71652 5.28348 9.85714 5.46429 9.85714H8.67857C8.85938 9.85714 9 9.71652 9 9.53571V5.03571ZM13.1786 8.57143C13.1786 11.5848 10.7277 14.0357 7.71429 14.0357C4.70089 14.0357 2.25 11.5848 2.25 8.57143C2.25 5.55804 4.70089 3.10714 7.71429 3.10714C10.7277 3.10714 13.1786 5.55804 13.1786 8.57143ZM15.4286 8.57143C15.4286 4.3125 11.9732 0.857142 7.71429 0.857142C3.45536 0.857142 0 4.3125 0 8.57143C0 12.8304 3.45536 16.2857 7.71429 16.2857C11.9732 16.2857 15.4286 12.8304 15.4286 8.57143Z" fill="#7E5AFF"/>
</svg>
