<svg width="16" height="13" viewBox="0 0 16 13" fill="none" xmlns="http://www.w3.org/2000/svg">
<path d="M10.2757 7.21429L9.32143 9.14286H6.10714L5.1529 7.21429H1.97879C1.99888 7.16406 2.00893 7.10379 2.02902 7.05357L4.15848 2.07143H11.2701L13.3996 7.05357C13.4196 7.10379 13.4297 7.16406 13.4498 7.21429H10.2757ZM15.4286 7.51562C15.4286 7.15402 15.3181 6.62165 15.1775 6.28013L12.7868 0.735491C12.6462 0.404017 12.2444 0.142857 11.8929 0.142857H3.53571C3.18415 0.142857 2.78237 0.404017 2.64174 0.735491L0.251116 6.28013C0.110491 6.62165 0 7.15402 0 7.51562V12.3571C0 12.7087 0.291295 13 0.642857 13H14.7857C15.1373 13 15.4286 12.7087 15.4286 12.3571V7.51562Z" fill="#7E5AFF"/>
</svg>
