<svg width="11" height="17" viewBox="0 0 11 17" fill="none" xmlns="http://www.w3.org/2000/svg">
<path d="M7.71429 6C7.71429 7.41629 6.55915 8.57143 5.14286 8.57143C3.72656 8.57143 2.57143 7.41629 2.57143 6C2.57143 4.5837 3.72656 3.42857 5.14286 3.42857C6.55915 3.42857 7.71429 4.5837 7.71429 6ZM10.2857 6C10.2857 3.15737 7.98549 0.857142 5.14286 0.857142C2.30022 0.857142 0 3.15737 0 6C0 6.61272 0.0703125 7.24554 0.331473 7.79799L3.99777 15.5725C4.19866 16.0145 4.66071 16.2857 5.14286 16.2857C5.625 16.2857 6.08705 16.0145 6.29799 15.5725L9.95424 7.79799C10.2154 7.24554 10.2857 6.61272 10.2857 6Z" fill="#7E5AFF"/>
</svg>
